{"title":"American Ninja Warrior - Season 4","uid":13096326,"size":38775537311,"categoryP":"video","categoryS":"hd___tv_shows","magnet":"?xt=urn:btih:a9f34fb51c4b368999df8d635245b29f29d5b57b&amp;dn=American+Ninja+Warrior+-+Season+4&amp;tr=udp%3A%2F%2Ftracker.leechers-paradise.org%3A6969&amp;tr=udp%3A%2F%2Fzer0day.ch%3A1337&amp;tr=udp%3A%2F%2Fopen.demonii.com%3A1337&amp;tr=udp%3A%2F%2Ftracker.coppersurfer.tk%3A6969&amp;tr=udp%3A%2F%2Fexodus.desync.com%3A6969","seeders":8,"leechers":7,"uploader":"orangebirds","files":24,"time":1451130097,"description":"American Ninja Warrior - Season 4\r\n\r\nVideo Quality : HDTV 720p except for Ep. 9, 11 and 12 in 1080p WEB-DL\r\n\r\nAudio : AC3 5.1 (NBC), AC3 2.0 (G4), AAC 2.0 (iTunes)\r\n\r\nCC available in Ep. 9, 11, 12\r\n\r\nPlease help me seed, and don't forget to leave a comment!\r\n\r\nGeneral\r\nUnique ID                                : 261675590106973860889178482881060220596 (0xC4DCE2AE2D2DA07B9616D8C6BCD92EB4)\r\nComplete name                            : american.ninja.warrior.s04e01.720p.hdtv.x264-2hd.mkv\r\nFormat                                   : Matroska\r\nFormat version                           : Version 1\r\nFile size                                : 1.34 GiB\r\nDuration                                 : 41mn 58s\r\nOverall bit rate                         : 4 574 Kbps\r\nEncoded date                             : UTC 2012-05-21 10:16:21\r\nWriting application                      : mkvmerge v2.0.2 ('You're My Flame') built on Jul 16 2008 20:03:58\r\nWriting library                          : libebml v0.7.7 + libmatroska v0.8.1\r\n\r\nVideo\r\nID                                       : 1\r\nFormat                                   : AVC\r\nFormat/Info                              : Advanced Video Codec\r\nFormat profile                           :   \r\nFormat settings, CABAC                   : Yes\r\nFormat settings, ReFrames                : 9 frames\r\nCodec ID                                 : V_MPEG4/ISO/AVC\r\nDuration                                 : 41mn 58s\r\nBit rate                                 : 4 099 Kbps\r\nWidth                                    : 1 280 pixels\r\nHeight                                   : 710 pixels\r\nDisplay aspect ratio                     : 16:9\r\nFrame rate mode                          : Constant\r\nFrame rate                               : 29.970 fps\r\nColor space                              : YUV\r\nChroma subsampling                       : 4:2:0\r\nBit depth                                : 8 bits\r\nScan type                                : Progressive\r\nBits/(Pixel*Frame)                       : 0.150\r\nStream size                              : 1.20 GiB (90%)\r\nWriting library                          : x264 core 124 r2197 69a0443\r\nEncoding settings                        : cabac=1 / ref=9 / deblock=1:0:0 / analyse=0x3:0x113 / me=umh / subme=8 / psy=1 / psy_rd=1.00:0.00 / mixed_ref=1 / me_range=16 / chroma_me=1 / trellis=1 / 8x8dct=1 / cqm=0 / deadzone=21,11 / fast_pskip=1 / chroma_qp_offset=-2 / threads=6 / sliced_threads=0 / nr=0 / decimate=1 / interlaced=0 / bluray_compat=0 / constrained_intra=0 / bframes=3 / b_pyramid=2 / b_adapt=2 / b_bias=0 / direct=3 / weightb=1 / open_gop=0 / weightp=2 / keyint=300 / keyint_min=29 / scenecut=40 / intra_refresh=0 / rc_lookahead=50 / rc=crf / mbtree=1 / crf=23.0 / qcomp=0.60 / qpmin=0 / qpmax=69 / qpstep=4 / ip_ratio=1.40 / aq=1:1.00\r\nLanguage                                 : English\r\nDefault                                  : Yes\r\nForced                                   : No\r\n\r\nAudio\r\nID                                       : 2\r\nFormat                                   : AC-3\r\nFormat/Info                              : Audio Coding 3\r\nMode extension                           : CM (complete main)\r\nFormat settings, Endianness              : Big\r\nCodec ID                                 : A_AC3\r\nDuration                                 : 41mn 58s\r\nBit rate mode                            : Constant\r\nBit rate                                 : 384 Kbps\r\nChannel(s)                               : 2 channels\r\nChannel positions                        : Front: L R\r\nSampling rate                            : 48.0 KHz\r\nBit depth                                : 16 bits\r\nCompression mode                         : Lossy\r\nStream size                              : 115 MiB (8%)\r\nDefault                                  : Yes\r\nForced                                   : No","torrent":{"xt":"urn:btih:a9f34fb51c4b368999df8d635245b29f29d5b57b","amp;dn":"American+Ninja+Warrior+-+Season+4","amp;tr":["udp%3A%2F%2Ftracker.leechers-paradise.org%3A6969","udp%3A%2F%2Fzer0day.ch%3A1337","udp%3A%2F%2Fopen.demonii.com%3A1337","udp%3A%2F%2Ftracker.coppersurfer.tk%3A6969","udp%3A%2F%2Fexodus.desync.com%3A6969"],"infoHash":"a9f34fb51c4b368999df8d635245b29f29d5b57b","infoHashBuffer":{"type":"Buffer","data":[169,243,79,181,28,75,54,137,153,223,141,99,82,69,178,159,41,213,181,123]},"announce":[],"urlList":[]}}